<?xml version="1.0" encoding="UTF-8" standalone="no"?>
<!-- Created with Inkscape (http://www.inkscape.org/) -->

<svg
   xmlns:dc="http://purl.org/dc/elements/1.1/"
   xmlns:cc="http://creativecommons.org/ns#"
   xmlns:rdf="http://www.w3.org/1999/02/22-rdf-syntax-ns#"
   xmlns:svg="http://www.w3.org/2000/svg"
   xmlns="http://www.w3.org/2000/svg"
   xmlns:xlink="http://www.w3.org/1999/xlink"
   xmlns:sodipodi="http://sodipodi.sourceforge.net/DTD/sodipodi-0.dtd"
   xmlns:inkscape="http://www.inkscape.org/namespaces/inkscape"
   width="64px"
   height="64px"
   id="svg2985"
   version="1.1"
   inkscape:version="0.48.2 r9819"
   sodipodi:docname="drawing.svg"
   inkscape:export-filename="E:\Desktop\drawing.png"
   inkscape:export-xdpi="360"
   inkscape:export-ydpi="360">
  <defs
     id="defs2987">
    <linearGradient
       inkscape:collect="always"
       id="linearGradient3846">
      <stop
         style="stop-color:#354f5c;stop-opacity:1;"
         offset="0"
         id="stop3848" />
      <stop
         style="stop-color:#354f5c;stop-opacity:0;"
         offset="1"
         id="stop3850" />
    </linearGradient>
    <linearGradient
       inkscape:collect="always"
       xlink:href="#linearGradient3846"
       id="linearGradient3852"
       x1="53.037498"
       y1="1.5706129"
       x2="34.092522"
       y2="35.070614"
       gradientUnits="userSpaceOnUse" />
    <linearGradient
       inkscape:collect="always"
       xlink:href="#linearGradient3846"
       id="linearGradient3855"
       gradientUnits="userSpaceOnUse"
       x1="53.037498"
       y1="1.5706129"
       x2="36.75919"
       y2="32.717674" />
  </defs>
  <sodipodi:namedview
     id="base"
     pagecolor="#ffffff"
     bordercolor="#666666"
     borderopacity="1.0"
     inkscape:pageopacity="0.0"
     inkscape:pageshadow="2"
     inkscape:zoom="12.75"
     inkscape:cx="32"
     inkscape:cy="32"
     inkscape:current-layer="layer1"
     showgrid="false"
     inkscape:document-units="px"
     inkscape:grid-bbox="true"
     inkscape:window-width="1920"
     inkscape:window-height="1013"
     inkscape:window-x="-8"
     inkscape:window-y="-8"
     inkscape:window-maximized="1">
    <inkscape:grid
       type="xygrid"
       id="grid3773" />
  </sodipodi:namedview>
  <metadata
     id="metadata2990">
    <rdf:RDF>
      <cc:Work
         rdf:about="">
        <dc:format>image/svg+xml</dc:format>
        <dc:type
           rdf:resource="http://purl.org/dc/dcmitype/StillImage" />
        <dc:title></dc:title>
      </cc:Work>
    </rdf:RDF>
  </metadata>
  <g
     id="layer1"
     inkscape:label="Layer 1"
     inkscape:groupmode="layer">
    <rect
       style="fill:#4f788c;fill-opacity:1;fill-rule:nonzero;stroke:#354f5c;stroke-width:1.75757575;stroke-opacity:1"
       id="rect2993"
       width="52.727276"
       height="52.727276"
       x="3.2074878"
       y="9.5336256" />
    <rect
       y="4.2608981"
       x="8.4802151"
       height="52.727276"
       width="52.727276"
       id="rect3771"
       style="fill:#6e9bb0;fill-opacity:0.6857143;fill-rule:nonzero;stroke:#354f5c;stroke-width:1.75757575000000000;stroke-opacity:1" />
    <text
       xml:space="preserve"
       style="font-size:56.24242401px;font-style:normal;font-variant:normal;font-weight:normal;font-stretch:normal;line-height:125%;letter-spacing:0px;word-spacing:0px;fill:#e8f1f6;fill-opacity:1;stroke:none;font-family:Italia Std Book;-inkscape-font-specification:Italia Std Book"
       x="8.4802151"
       y="53.473022"
       id="text3775"
       sodipodi:linespacing="125%"><tspan
         sodipodi:role="line"
         id="tspan3777"
         x="8.4802151"
         y="53.473022">Fr</tspan></text>
    <path
       d="m 9.3486146,5.1430568 0,50.9967032 m 4.0116964,-50.9967032 0,50.9967032 m 4.011696,-50.9967032 0,50.9967032 m 4.011696,-50.9967032 0,50.9967032 m 4.011694,-50.9967032 0,50.9967032 m 4.011696,-50.9967032 0,50.9967032 m 4.011696,-50.9967032 0,50.9967032 m 4.011696,-50.9967032 0,50.9967032 m 4.011696,-50.9967032 0,50.9967032 m 4.011695,-50.9967032 0,50.9967032 m 4.011696,-50.9967032 0,50.9967032 m 4.011695,-50.9967032 0,50.9967032 m 4.011696,-50.9967032 0,50.9967032 M 9.3486146,5.1430568 l 50.9919234,0 m -50.9919234,4.0018827 50.9919234,0 m -50.9919234,4.0018835 50.9919234,0 m -50.9919234,4.001884 50.9919234,0 m -50.9919234,4.001882 50.9919234,0 m -50.9919234,4.001883 50.9919234,0 m -50.9919234,4.001882 50.9919234,0 m -50.9919234,4.001884 50.9919234,0 m -50.9919234,4.001882 50.9919234,0 m -50.9919234,4.001882 50.9919234,0 m -50.9919234,4.001883 50.9919234,0 m -50.9919234,4.001883 50.9919234,0 m -50.9919234,4.001883 50.9919234,0"
       style="fill:none;stroke:#000000;stroke-width:0.02504241;stroke-linecap:butt;stroke-linejoin:miter;stroke-miterlimit:4;stroke-opacity:1;stroke-dasharray:none"
       id="path3829"
       inkscape:connector-curvature="0" />
    <path
       style="fill:#ffffff;fill-opacity:1;stroke:url(#linearGradient3855);stroke-width:0.50000000000000000;stroke-miterlimit:4;stroke-opacity:1;stroke-dasharray:none"
       d="m 39.625,27.375 c 0.247828,-1.198996 0.353673,-2.395407 0.641601,-3.582299 3.374452,-7.676894 7.485354,-15.5575429 10.584059,-22.1494414 0.711224,-0.75701289 1.916477,-0.2398915 2.608499,0.2950001 0.669407,0.4097599 0.598665,1.2153916 0.171439,1.7634887 C 49.866722,10.731447 46.102845,17.761145 42.338969,24.790843 41.434313,25.652229 40.529656,26.513614 39.625,27.375 z"
       id="path3779"
       inkscape:connector-curvature="0"
       sodipodi:nodetypes="ccccccc" />
  </g>
</svg>
